HIERARCHY
ROOT RightShoulder
{
	OFFSET -1.644901 -0.003980 3.801207
	CHANNELS 6 Xposition Yposition Zposition Xrotation Yrotation Zrotation
	JOINT RightElbow
	{
		OFFSET -2.454748 0.000000 0.000000
		CHANNELS 3 Xrotation Yrotation Zrotation
		JOINT RightWrist
		{
			OFFSET -2.035185 -0.001238 0.000000
			CHANNELS 3 Xrotation Yrotation Zrotation
			End Site
			{
				OFFSET -1.535909 0.000000 0.000000
			}
		}
	}
}
MOTION
Frames: 39
Frame Time: 0.050000
-1.644901 -0.003980 3.801207 236.917597 206.655693 -92.734298 -55.543669 -62.944510 11.797048 236.917624 206.655665 -92.734271 
-1.644901 -0.003980 3.801207 236.885003 206.658739 -92.749154 -61.812816 -56.189675 10.699088 236.885003 206.658698 -92.749126 
-1.644901 -0.003980 3.801207 236.787250 206.667796 -92.793741 -61.473594 -59.063617 16.590794 236.787250 206.667782 -92.793721 
-1.644901 -0.003980 3.801207 236.624254 206.682754 -92.868142 -52.945967 -56.837248 29.359807 236.624254 206.682754 -92.868136 
-1.644901 -0.003980 3.801207 236.395989 206.703367 -92.972501 -43.441055 -54.992059 41.369394 236.395962 206.703381 -92.972514 
-1.644901 -0.003980 3.801207 236.102373 206.729322 -93.106994 -37.161563 -52.948118 46.992361 236.102373 206.729363 -93.107021 
-1.644901 -0.003980 3.801207 235.743324 206.760181 -93.271854 -32.762666 -47.405570 50.964587 235.743324 206.760167 -93.271841 
-1.644901 -0.003980 3.801207 235.318704 206.795425 -93.467369 -29.125323 -45.278786 52.109876 235.318704 206.795452 -93.467382 
-1.644901 -0.003980 3.801207 234.828406 206.834452 -93.693858 -26.120552 -41.968220 52.481043 234.828406 206.834425 -93.693844 
-1.644901 -0.003980 3.801207 234.272319 206.876513 -93.951684 -23.991750 -39.503338 51.337027 234.272292 206.876540 -93.951704 
-1.644901 -0.003980 3.801207 233.650253 206.920799 -94.241229 -20.844636 -35.402312 49.583017 233.650226 206.920799 -94.241222 
-1.644901 -0.003980 3.801207 232.962098 206.966370 -94.562924 -18.356366 -32.262583 47.305569 232.962098 206.966343 -94.562897 
-1.644901 -0.003980 3.801207 232.207717 207.012174 -94.917192 -15.644722 -29.189828 44.763636 232.207690 207.012215 -94.917226 
-1.644901 -0.003980 3.801207 231.386974 207.057048 -95.304457 -12.207556 -25.967771 41.581229 231.386974 207.057075 -95.304478 
-1.644901 -0.003980 3.801207 230.499815 207.099723 -95.725176 -8.112932 -22.905558 38.554727 230.499815 207.099737 -95.725190 
-1.644901 -0.003980 3.801207 229.546102 207.138778 -96.179766 -4.592125 -19.747523 35.203174 229.546102 207.138792 -96.179780 
-1.644901 -0.003980 3.801207 228.525835 207.172683 -96.668617 -0.761105 -17.356547 31.089396 228.525835 207.172711 -96.668637 
-1.644901 -0.003980 3.801207 227.439029 207.199813 -97.192096 3.120920 -13.762297 26.914680 227.439016 207.199840 -97.192123 
-1.644901 -0.003980 3.801207 226.285779 207.218350 -97.750491 3.136080 -11.912104 21.771655 226.285752 207.218404 -97.750532 
-1.644901 -0.003980 3.801207 225.066194 207.226396 -98.344042 3.668142 -9.965597 15.759692 225.066208 207.226382 -98.344021 
-1.644901 -0.003980 3.801207 223.780548 207.221902 -98.972890 2.806197 -7.464007 9.157345 223.780534 207.221902 -98.972890 
-1.644901 -0.003980 3.801207 222.429181 207.202668 -99.637058 1.395777 -5.075569 3.751102 222.429154 207.202709 -99.637099 
-1.644901 -0.003980 3.801207 221.012545 207.166386 -100.336462 1.949967 -3.122666 0.580753 221.012545 207.166386 -100.336456 
-1.644901 -0.003980 3.801207 219.531227 207.110638 -101.070858 2.993341 -1.610115 -0.517690 219.531214 207.110665 -101.070899 
-1.644901 -0.003980 3.801207 217.986006 207.032842 -101.839828 5.523428 0.729643 -0.904171 217.986006 207.032842 -101.839835 
-1.644901 -0.003980 3.801207 216.377770 206.930307 -102.642799 8.507309 3.457197 -1.566608 216.377784 206.930280 -102.642765 
-1.644901 -0.003980 3.801207 214.707625 206.800247 -103.478944 13.524137 5.308184 -0.713397 214.707611 206.800274 -103.478985 
-1.644901 -0.003980 3.801207 212.976855 206.639765 -104.347238 16.631391 6.909707 0.912508 212.976841 206.639765 -104.347252 
-1.644901 -0.003980 3.801207 211.186922 206.445855 -105.246412 20.241310 8.305526 1.647748 211.186936 206.445855 -105.246412 
-1.644901 -0.003980 3.801207 209.339574 206.215473 -106.174935 23.803315 8.298056 3.627367 209.339574 206.215473 -106.174929 
-1.644901 -0.003980 3.801207 207.436697 205.945476 -107.130991 30.190140 6.883168 6.927539 207.436711 205.945476 -107.130978 
-1.644901 -0.003980 3.801207 205.576372 205.648895 -108.064425 37.777172 5.673266 10.379930 205.576386 205.648882 -108.064405 
-1.644901 -0.003980 3.801207 203.854427 205.345116 -108.926545 46.109364 3.066649 14.978076 203.854454 205.345102 -108.926511 
-1.644901 -0.003980 3.801207 202.269413 205.040175 -109.717884 51.513905 0.139397 19.345602 202.269400 205.040189 -109.717932 
-1.644901 -0.003980 3.801207 200.819678 204.739688 -110.439316 58.508336 -2.258641 25.203186 200.819678 204.739688 -110.439303 
-1.644901 -0.003980 3.801207 199.503474 204.448749 -111.091955 62.709934 -6.099432 30.431969 199.503460 204.448763 -111.091982 
-1.644901 -0.003980 3.801207 198.319064 204.171990 -111.677042 67.274153 -8.387584 35.117940 198.319078 204.171976 -111.677001 
-1.644901 -0.003980 3.801207 197.264674 203.913535 -112.195952 71.188739 -10.654622 39.493691 197.264688 203.913522 -112.195918 
-1.644901 -0.003980 3.801207 196.338651 203.677061 -112.650009 75.315130 -12.515558 44.178111 196.338664 203.677061 -112.649975 
